{"title":"Journey 2 The Mysterious Island 2012 BRRip Xvid Ac3 ANALOG","uid":7276300,"size":1552955301,"categoryP":"video","categoryS":"movies","magnet":"?xt=urn:btih:442cf0a1a8e519f57c67ddf790d2bde69d813e3b&amp;dn=Journey+2+The+Mysterious+Island+2012+BRRip+Xvid+Ac3+ANALOG&amp;tr=udp%3A%2F%2Ftracker.openbittorrent.com%3A80&amp;tr=udp%3A%2F%2Fopen.demonii.com%3A1337&amp;tr=udp%3A%2F%2Ftracker.coppersurfer.tk%3A6969&amp;tr=udp%3A%2F%2Fexodus.desync.com%3A6969","seeders":0,"leechers":1,"uploader":"lyrical1986","files":10,"time":1337293174,"description":"[img]http://img850.imageshack.us/img850/6456/journey2themysteriousisj.jpg[/img]\n\nSean Anderson partners with his mom's husband on a mission to find his grandfather, who is thought to be missing on a mythical island.\n\nDwayne Johnson ... Hank\nMichael Caine ... Alexander\nJosh Hutcherson ... Sean\nVanessa Hudgens ... Kailani\nLuis GuzmÃƒÆ’Ã‚Â¡n ... Gabato\nKristin Davis ... Liz\n\nFormat: AVI\nFormat/Info: Audio Video Interleave\nFile size: 1.43 GiB\nDuration: 1h 34mn\nOverall bit rate: 2 180 Kbps\n\nVideo\nID: 0\nFormat: MPEG-4 Visual\nFormat profile: Advanced Simple@L5\nFormat settings, BVOP: 2\nFormat settings, QPel: No\nFormat settings, GMC: No warppoints\nFormat settings, Matrix: Default (MPEG)\nMuxing mode: Packed bitstream\nCodec ID: XVID\nCodec ID/Hint: XviD\nDuration: 1h 34mn\nBit rate: 1 788 Kbps\nWidth: 720 pixels\nHeight: 400 pixels\nDisplay aspect ratio: 16:9\nFrame rate: 23.976 fps\nColor space: YUV\nChroma subsampling: 4:2:0\nBit depth: 8 bits\nScan type: Progressive\nCompression mode: Lossy\nBits/(Pixel*Frame): 0.259\nStream size: 1.18 GiB (82%)\nWriting library: XviD 1.2.1 (UTC 2008-12-04)\n\nAudio\nID: 1\nFormat: AC-3\nFormat/Info: Audio Coding 3\nMode extension: CM (complete main)\nFormat settings, Endianness: Big\nCodec ID: 2000\nDuration: 1h 34mn\nBit rate mode: Constant\nBit rate: 384 Kbps\nChannel(s): 6 channels\nChannel positions: Front: L C R, Side: L R, LFE\nSampling rate: 48.0 KHz\nBit depth: 16 bits\nCompression mode: Lossy\nStream size: 259 MiB (18%)\nAlignment: Aligned on interleaves\nInterleave, duration: 64 ms (1.53 video frames)\nInterleave, preload duration: 192 ms\nTitle: Journey.track_2_ANALOG\nSample: Yes\nSource: 720pAMIABLE THX\n\n[img]http://img208.imageshack.us/img208/7806/16778150.png[/img]\n[img]http://img225.imageshack.us/img225/6027/52085243.png[/img]\n[img]http://img848.imageshack.us/img848/2192/71770327.png[/img]\n[img]http://img18.imageshack.us/img18/9682/60229289.png[/img]\n[img]http://img96.imageshack.us/img96/9562/22449162.png[/img]","torrent":{"xt":"urn:btih:442cf0a1a8e519f57c67ddf790d2bde69d813e3b","amp;dn":"Journey+2+The+Mysterious+Island+2012+BRRip+Xvid+Ac3+ANALOG","amp;tr":["udp%3A%2F%2Ftracker.openbittorrent.com%3A80","udp%3A%2F%2Fopen.demonii.com%3A1337","udp%3A%2F%2Ftracker.coppersurfer.tk%3A6969","udp%3A%2F%2Fexodus.desync.com%3A6969"],"infoHash":"442cf0a1a8e519f57c67ddf790d2bde69d813e3b","infoHashBuffer":{"type":"Buffer","data":[68,44,240,161,168,229,25,245,124,103,221,247,144,210,189,230,157,129,62,59]},"announce":[],"urlList":[]}}